<svg width="1249" height="1242" fill="none" xmlns="http://www.w3.org/2000/svg"><g style="mix-blend-mode:exclusion" filter="url(#filter0_dd_1_271)"><path d="M1127.5 621c0-8.25-.2-16.453-.6-24.604l-1.5.073a496.21 496.21 0 00-4.8-48.819l1.48-.22a495.606 495.606 0 00-9.64-48.244l-1.46.367a487.98 487.98 0 00-14.36-46.898l1.41-.51a492.943 492.943 0 00-19.01-45.374l-1.35.648a496.456 496.456 0 00-23.35-43.135l1.28-.778a502.302 502.302 0 00-27.56-40.747l-1.2.9a502.4 502.4 0 00-31.336-37.738l1.106-1.013a504.699 504.699 0 00-34.968-34.605l-1.002 1.117a503.209 503.209 0 00-38.057-30.943l.888-1.208a504.193 504.193 0 00-41.011-27.17l-.767 1.29a501.326 501.326 0 00-43.336-22.969l.636-1.358a501.63 501.63 0 00-45.512-18.676l-.5 1.414a500.401 500.401 0 00-46.982-14.085l.36-1.456a503.753 503.753 0 00-48.28-9.453l-.216 1.485a507.171 507.171 0 00-48.831-4.706l.072-1.498a514.856 514.856 0 00-49.208 0l.072 1.498a507.171 507.171 0 00-48.831 4.706l-.216-1.485a503.753 503.753 0 00-48.28 9.453l.36 1.456a500.49 500.49 0 00-46.982 14.085l-.5-1.414a501.63 501.63 0 00-45.512 18.676l.637 1.358a501.198 501.198 0 00-43.337 22.969l-.767-1.29a504.193 504.193 0 00-41.011 27.17l.888 1.208a503.209 503.209 0 00-38.057 30.943l-1.002-1.117a504.699 504.699 0 00-34.968 34.605l1.106 1.013a501.143 501.143 0 00-31.332 37.738l-1.2-.9a500.308 500.308 0 00-27.566 40.747l1.282.778a495.611 495.611 0 00-23.346 43.135l-1.353-.648a494.361 494.361 0 00-19.014 45.374l1.411.51a491.4 491.4 0 00-14.359 46.898l-1.455-.367a494.076 494.076 0 00-9.646 48.244l1.484.22a496.821 496.821 0 00-4.804 48.819l-1.498-.073c-.399 8.151-.6 16.354-.6 24.604s.201 16.453.6 24.604l1.498-.073a496.821 496.821 0 004.804 48.819l-1.484.22a494.135 494.135 0 009.646 48.244l1.455-.367a491.4 491.4 0 0014.359 46.898l-1.411.51a494.361 494.361 0 0019.014 45.374l1.353-.648a495.88 495.88 0 0023.346 43.135l-1.282.778a500.308 500.308 0 0027.566 40.747l1.2-.9a501.143 501.143 0 0031.332 37.738l-1.106 1.013a504.699 504.699 0 0034.968 34.605l1.002-1.117a503.66 503.66 0 0038.057 30.94l-.888 1.21a502.885 502.885 0 0041.011 27.17l.767-1.29c14.016 8.33 28.476 16 43.337 22.97l-.637 1.36a502.165 502.165 0 0045.512 18.67l.5-1.41a500.425 500.425 0 0046.982 14.09l-.36 1.45a502.21 502.21 0 0048.28 9.45l.216-1.48a505.91 505.91 0 0048.83 4.7l-.071 1.5c8.152.39 16.355.59 24.604.59 8.249 0 16.452-.2 24.604-.59l-.072-1.5a505.9 505.9 0 0048.831-4.7l.216 1.48a502.21 502.21 0 0048.28-9.45l-.36-1.45a500.514 500.514 0 0046.982-14.09l.5 1.41a502.165 502.165 0 0045.512-18.67l-.636-1.36a502.443 502.443 0 0043.336-22.97l.767 1.29a502.885 502.885 0 0041.011-27.17l-.888-1.21a503.66 503.66 0 0038.057-30.94l1.002 1.117a504.699 504.699 0 0034.968-34.605l-1.106-1.013a502.4 502.4 0 0031.336-37.738l1.2.9a502.302 502.302 0 0027.56-40.747l-1.28-.778a496.456 496.456 0 0023.35-43.135l1.35.648a492.943 492.943 0 0019.01-45.374l-1.41-.51a487.98 487.98 0 0014.36-46.898l1.46.367a495.546 495.546 0 009.64-48.244l-1.48-.22a496.21 496.21 0 004.8-48.819l1.5.073c.4-8.151.6-16.354.6-24.604z" stroke="#FE2C55" stroke-opacity=".45" stroke-width="3" stroke-dasharray="50 50" shape-rendering="crispEdges"/></g><defs><filter id="filter0_dd_1_271" x="0" y="0" width="1249" height="1242" filterUnits="userSpaceOnUse" color-interpolation-filters="sRGB"><feFlood flood-opacity="0" result="BackgroundImageFix"/><feColorMatrix in="SourceAlpha" values="0 0 0 0 0 0 0 0 0 0 0 0 0 0 0 0 0 0 127 0" result="hardAlpha"/><feOffset dx="20" dy="20"/><feGaussianBlur stdDeviation="50"/><feComposite in2="hardAlpha" operator="out"/><feColorMatrix values="0 0 0 0 0.996078 0 0 0 0 0.172549 0 0 0 0 0.333333 0 0 0 0.4 0"/><feBlend in2="BackgroundImageFix" result="effect1_dropShadow_1_271"/><feColorMatrix in="SourceAlpha" values="0 0 0 0 0 0 0 0 0 0 0 0 0 0 0 0 0 0 127 0" result="hardAlpha"/><feOffset dx="-20" dy="-20"/><feGaussianBlur stdDeviation="50"/><feComposite in2="hardAlpha" operator="out"/><feColorMatrix values="0 0 0 0 0.996078 0 0 0 0 0.172549 0 0 0 0 0.333333 0 0 0 0.4 0"/><feBlend in2="effect1_dropShadow_1_271" result="effect2_dropShadow_1_271"/><feBlend in="SourceGraphic" in2="effect2_dropShadow_1_271" result="shape"/></filter></defs></svg>